<?xml version="1.0" standalone="no"?>
<!DOCTYPE svg PUBLIC "-//W3C//DTD SVG 20010904//EN"
 "http://www.w3.org/TR/2001/REC-SVG-20010904/DTD/svg10.dtd">
<svg version="1.0" xmlns="http://www.w3.org/2000/svg"
 width="5000.000000pt" height="5000.000000pt" viewBox="0 0 5000.000000 5000.000000"
 preserveAspectRatio="xMidYMid meet">
<metadata>
Created by potrace 1.11, written by Peter Selinger 2001-2013
</metadata>
<g transform="translate(0.000000,5000.000000) scale(0.100000,-0.100000)"
fill="#000000" stroke="none">
<path d="M16390 31481 l0 -3159 38 -13 c186 -60 424 -248 544 -430 136 -206
193 -395 193 -639 -1 -154 -12 -227 -55 -358 -105 -319 -367 -593 -668 -701
l-47 -17 0 -2694 c0 -1482 3 -2711 7 -2731 18 -89 68 -185 133 -254 48 -51
161 -132 307 -220 37 -22 410 -261 533 -340 72 -47 136 -88 144 -91 13 -7 309
-195 546 -347 122 -79 380 -243 435 -277 22 -14 202 -128 400 -255 198 -126
368 -234 378 -240 10 -5 56 -35 103 -64 203 -132 250 -162 349 -224 58 -36
135 -85 172 -109 37 -24 111 -71 165 -105 54 -35 188 -120 299 -191 110 -71
207 -131 215 -135 8 -4 47 -28 86 -54 40 -27 189 -122 330 -212 142 -90 287
-183 323 -206 36 -23 110 -70 165 -105 55 -35 123 -77 150 -95 28 -18 151 -97
275 -175 124 -79 261 -166 304 -194 44 -28 126 -80 182 -116 57 -36 163 -103
236 -150 73 -47 141 -89 150 -95 10 -5 66 -41 125 -79 60 -38 131 -84 158
-101 64 -41 258 -164 455 -290 85 -54 238 -153 340 -221 222 -147 364 -227
525 -295 162 -68 302 -109 440 -127 63 -8 265 -8 325 0 189 25 436 109 645
219 131 68 170 92 365 219 107 70 283 182 390 250 107 67 220 140 252 161 31
22 59 39 62 39 3 0 28 15 54 33 26 17 55 37 65 42 23 14 429 273 447 285 8 5
107 69 220 140 385 245 405 257 680 433 47 30 112 72 145 93 33 21 65 41 70
44 6 3 70 43 143 90 72 47 150 96 172 110 22 14 167 106 322 205 154 99 295
188 312 198 17 10 64 39 103 65 128 82 682 436 711 453 30 18 1047 666 1152
734 36 23 128 81 205 130 77 49 176 111 220 140 109 70 445 284 495 315 22 14
100 63 172 110 73 47 137 87 142 89 6 2 32 19 58 38 26 18 52 33 58 33 14 0
13 9 -10 81 -19 59 -26 87 -45 174 -4 17 -8 91 -10 165 -9 319 96 587 322 825
115 122 322 247 481 291 l62 17 0 6524 0 6523 -44 -27 c-24 -16 -410 -262
-859 -548 -449 -286 -826 -526 -839 -533 -13 -7 -63 -39 -113 -71 -86 -57
-308 -198 -363 -232 -15 -9 -83 -53 -152 -97 -69 -45 -145 -94 -170 -109 -25
-14 -81 -50 -125 -78 -44 -29 -181 -117 -305 -195 -218 -138 -299 -190 -330
-210 -8 -5 -359 -229 -780 -496 -421 -268 -794 -505 -830 -529 -36 -23 -159
-101 -275 -174 -115 -73 -222 -141 -237 -152 -15 -10 -31 -19 -37 -19 -5 0
-11 -3 -13 -8 -2 -6 -174 -118 -256 -167 -29 -17 -176 -111 -212 -135 -8 -6
-150 -96 -315 -200 -165 -105 -322 -205 -350 -223 -27 -17 -282 -179 -565
-359 -283 -180 -522 -332 -530 -338 -27 -18 -294 -188 -350 -223 -70 -43 -284
-179 -439 -278 l-119 -77 -91 57 c-50 31 -154 97 -231 146 -78 50 -150 94
-160 100 -11 5 -20 13 -20 17 0 5 -5 8 -10 8 -6 0 -41 20 -78 44 -100 65 -227
146 -545 348 -98 62 -203 129 -233 148 -30 19 -101 64 -157 99 -56 36 -145 92
-197 126 -273 177 -683 435 -690 435 -5 0 -10 4 -12 8 -1 4 -21 19 -43 32 -22
13 -85 53 -140 88 -55 36 -122 79 -150 97 -27 17 -208 132 -402 256 -194 123
-360 229 -370 234 -10 6 -49 31 -88 56 -60 39 -286 183 -336 214 -9 6 -29 19
-45 29 -107 71 -165 106 -173 106 -5 0 -11 4 -13 8 -1 4 -52 39 -113 76 -60
38 -139 88 -175 111 -36 24 -216 139 -400 255 -184 117 -364 231 -400 255
-123 80 -910 580 -929 590 -10 6 -36 22 -57 37 -22 14 -91 58 -154 98 -158
100 -212 135 -305 195 -137 88 -1224 779 -1253 796 -15 9 -148 94 -297 189
-148 95 -287 183 -307 196 l-38 24 0 -3159z m8880 -3771 c129 -39 262 -80 295
-90 33 -10 121 -37 195 -60 74 -23 171 -52 215 -65 44 -13 116 -35 160 -48 44
-14 157 -48 250 -77 94 -28 220 -66 280 -85 61 -19 272 -84 470 -144 198 -60
414 -126 480 -146 66 -20 147 -45 180 -55 250 -75 510 -154 560 -170 33 -11
137 -43 230 -71 94 -28 181 -54 195 -59 14 -5 81 -25 150 -46 69 -20 128 -39
132 -43 3 -3 9 -391 12 -861 4 -470 9 -1107 13 -1415 12 -1056 6 -2204 -12
-2355 -2 -19 -6 -89 -9 -155 -3 -66 -8 -142 -11 -170 -3 -27 -7 -72 -9 -100
-11 -124 -18 -194 -26 -245 -5 -30 -12 -80 -15 -110 -4 -30 -20 -125 -36 -210
-36 -189 -39 -202 -44 -210 -2 -4 -7 -22 -10 -41 -3 -19 -18 -72 -32 -119 -15
-47 -28 -87 -28 -90 -14 -51 -26 -84 -67 -185 -207 -504 -534 -894 -1098
-1308 -80 -59 -149 -110 -155 -115 -5 -4 -73 -49 -150 -100 -77 -50 -144 -95
-150 -100 -45 -37 -651 -397 -985 -586 -124 -70 -232 -131 -240 -136 -29 -17
-614 -346 -669 -375 -31 -17 -118 -66 -194 -108 -75 -42 -142 -77 -147 -77 -6
0 -45 20 -88 44 -42 23 -99 56 -127 71 -27 15 -86 48 -130 72 -44 25 -105 59
-135 75 -30 17 -217 122 -415 233 -198 111 -378 213 -400 225 -22 12 -44 26
-50 30 -5 4 -31 19 -57 34 -126 69 -145 80 -170 97 -14 11 -29 19 -32 19 -5 0
-382 226 -499 299 -748 469 -1182 846 -1459 1271 -143 218 -278 529 -344 789
-38 152 -63 276 -98 491 -7 42 -32 258 -41 355 -23 242 -31 390 -42 750 -9
276 -9 1355 0 2090 4 292 10 910 13 1375 3 465 9 848 12 851 4 4 144 48 312
99 168 51 465 141 660 200 195 60 416 127 490 149 74 23 178 55 230 71 52 16
208 63 345 105 138 42 300 91 360 110 61 18 216 66 345 105 129 39 271 83 315
97 44 14 94 29 110 33 17 5 82 24 145 43 63 20 189 58 280 86 91 27 203 62
250 76 186 58 206 63 230 60 14 -1 131 -35 260 -75z"/>
<path d="M24784 25130 c-153 -31 -295 -89 -418 -173 -85 -57 -92 -64 -178
-150 -165 -167 -269 -371 -312 -612 -14 -78 -15 -303 -1 -370 50 -247 148
-438 308 -604 52 -54 185 -162 232 -188 11 -6 6 -32 -22 -128 -37 -128 -41
-141 -71 -250 -11 -38 -31 -108 -45 -155 -13 -47 -27 -94 -30 -105 -3 -11 -41
-144 -85 -295 -218 -751 -263 -912 -259 -917 6 -6 2189 -5 2195 1 2 3 -19 85
-48 183 -28 98 -94 327 -147 508 -52 182 -104 359 -114 395 -10 36 -29 103
-43 150 -13 47 -58 202 -99 345 -62 215 -73 261 -61 268 8 5 49 35 92 67 243
183 401 447 449 750 10 62 10 240 0 324 -35 293 -225 599 -480 774 -116 80
-296 159 -404 178 -13 2 -35 7 -50 10 -16 4 -93 8 -173 9 -110 3 -167 -1 -236
-15z"/>
<path d="M11905 31787 c3 -9 110 -442 131 -527 2 -8 11 -44 19 -80 9 -36 18
-72 20 -80 2 -8 38 -152 80 -320 42 -168 78 -312 80 -320 2 -8 20 -80 40 -160
20 -80 38 -152 40 -160 2 -8 33 -134 70 -280 36 -146 68 -275 71 -288 2 -12
25 -104 50 -205 25 -100 48 -189 50 -197 2 -8 13 -53 25 -100 11 -47 22 -92
24 -100 2 -8 67 -269 145 -580 78 -311 143 -574 146 -585 2 -11 27 -110 54
-220 28 -110 53 -211 56 -225 3 -14 18 -74 33 -135 16 -60 31 -121 34 -135 3
-14 26 -108 52 -210 26 -102 48 -192 50 -200 2 -8 29 -116 60 -240 31 -124 58
-236 61 -250 2 -14 11 -47 19 -75 8 -27 24 -90 36 -140 11 -49 25 -103 30
-120 9 -30 66 -263 73 -300 3 -11 80 -319 171 -685 92 -366 168 -672 170 -680
2 -8 11 -44 20 -80 9 -36 18 -72 20 -80 12 -57 18 -70 37 -70 10 0 54 -7 96
-15 426 -86 758 -390 878 -803 33 -115 39 -164 39 -317 0 -149 -5 -195 -35
-301 -69 -246 -223 -468 -428 -618 -33 -24 -51 -44 -48 -52 4 -11 75 -294 101
-404 2 -8 23 -89 45 -180 23 -91 43 -172 45 -180 2 -8 49 -197 105 -420 56
-223 103 -412 105 -420 2 -8 28 -114 58 -235 31 -121 58 -231 61 -245 3 -14
24 -99 47 -190 23 -91 45 -181 50 -200 4 -19 13 -55 19 -80 6 -25 13 -52 15
-60 2 -8 31 -125 65 -260 34 -135 63 -252 65 -260 2 -8 22 -89 45 -180 23 -91
46 -183 51 -205 5 -22 13 -58 19 -80 6 -22 13 -48 15 -59 2 -10 7 -21 9 -24 5
-4 252 -82 306 -97 8 -2 53 -16 100 -30 47 -15 108 -33 135 -42 28 -8 167 -51
310 -94 455 -140 489 -150 525 -161 19 -6 46 -14 60 -19 14 -4 79 -24 145 -44
109 -33 264 -81 340 -104 157 -49 444 -137 590 -181 33 -10 98 -30 145 -45 47
-14 92 -28 100 -30 8 -2 16 -4 18 -5 1 -2 5 -3 10 -4 13 -3 123 -36 272 -82
80 -25 190 -59 245 -75 55 -17 111 -34 125 -39 14 -5 70 -22 125 -39 55 -16
190 -58 300 -91 110 -34 279 -86 375 -115 96 -29 211 -65 255 -78 44 -14 89
-27 100 -30 11 -3 94 -28 185 -57 91 -29 185 -58 210 -65 25 -7 333 -101 685
-209 352 -109 647 -199 655 -201 8 -3 53 -16 100 -30 167 -52 213 -65 204 -56
-5 4 -196 126 -424 271 -228 145 -444 282 -480 305 -36 23 -166 106 -290 185
-299 190 -352 223 -473 301 -226 145 -589 375 -627 399 -55 34 -283 179 -400
255 -119 76 -350 223 -394 250 -42 25 -199 125 -356 227 -66 43 -122 78 -124
78 -3 0 -42 25 -86 55 -44 30 -82 55 -84 55 -3 0 -507 320 -606 385 -19 13
-138 88 -265 168 -126 80 -235 151 -242 156 -7 6 -15 11 -18 11 -3 0 -33 18
-65 40 -32 22 -62 40 -65 40 -3 0 -11 5 -18 11 -10 9 -137 90 -612 391 -44 28
-117 75 -162 104 -46 30 -87 54 -92 54 -5 0 -11 4 -13 8 -2 4 -87 61 -189 125
l-187 118 0 3010 c0 1681 -4 3014 -8 3019 -5 4 -34 18 -64 31 -248 103 -479
337 -583 589 -11 25 -23 54 -28 65 -16 37 -48 166 -56 223 -9 72 -10 250 -1
322 10 74 44 200 74 271 32 77 66 143 76 147 4 2 8 8 8 14 0 20 92 139 161
208 99 98 188 163 309 222 58 28 107 53 109 54 8 6 3 2326 -6 2335 -7 7 -131
48 -193 63 -8 2 -163 50 -345 106 -181 56 -334 102 -340 104 -5 1 -37 11 -70
21 -33 10 -64 19 -70 21 -5 1 -39 12 -75 24 -36 12 -74 23 -84 25 -11 3 -40
11 -65 19 -136 43 -368 115 -621 191 -157 47 -296 90 -310 95 -14 5 -72 23
-130 40 -58 18 -139 43 -180 55 -71 23 -152 47 -445 136 -71 22 -179 55 -240
74 -60 19 -164 50 -230 70 -104 32 -205 63 -307 95 -19 6 -26 5 -23 -3z"/>
<path d="M38025 31775 c-22 -8 -49 -17 -60 -19 -11 -3 -198 -59 -415 -126
-217 -67 -417 -128 -445 -137 -27 -8 -137 -42 -244 -75 -107 -33 -200 -61
-205 -62 -6 -1 -56 -16 -111 -34 -154 -48 -365 -113 -415 -127 -61 -18 -252
-76 -445 -137 -88 -27 -167 -51 -175 -53 -8 -2 -112 -33 -230 -70 -118 -37
-222 -69 -230 -71 -8 -2 -58 -17 -110 -33 -52 -16 -201 -62 -330 -101 -129
-40 -239 -76 -244 -80 -9 -9 -12 -9112 -2 -9128 3 -5 25 -19 48 -31 196 -98
379 -286 487 -498 151 -301 154 -690 7 -996 -99 -204 -274 -394 -461 -497 -33
-18 -64 -36 -70 -39 -27 -18 -189 -74 -250 -85 -16 -4 -41 -9 -55 -12 -14 -4
-90 -8 -170 -10 -200 -4 -347 26 -508 104 l-60 30 -139 -89 c-76 -49 -145 -92
-153 -96 -8 -4 -19 -11 -25 -15 -5 -5 -107 -70 -225 -144 -118 -75 -251 -160
-295 -188 -44 -29 -147 -95 -230 -146 -82 -52 -171 -108 -197 -125 -219 -140
-270 -172 -318 -203 -30 -19 -81 -52 -113 -73 -32 -22 -60 -39 -62 -39 -3 0
-33 -19 -69 -42 -35 -24 -83 -55 -107 -69 -34 -21 -354 -225 -465 -296 -10 -7
-48 -31 -84 -53 -36 -23 -173 -110 -305 -195 -216 -138 -447 -285 -511 -325
-13 -8 -161 -103 -329 -210 -168 -107 -313 -200 -323 -205 -9 -6 -55 -35 -102
-65 -46 -30 -92 -59 -102 -65 -17 -9 -339 -214 -620 -395 -65 -41 -153 -97
-195 -124 -43 -27 -109 -69 -148 -94 -38 -25 -88 -57 -110 -70 -47 -27 -39
-26 120 23 154 48 698 214 770 235 33 10 179 55 325 99 146 45 310 95 365 112
55 17 107 33 115 36 15 5 240 74 580 178 175 53 475 145 625 191 44 14 134 41
200 60 66 20 144 44 175 54 30 10 183 57 340 105 338 102 464 141 625 192 66
20 122 38 125 38 9 2 151 45 285 86 72 22 180 56 240 74 61 19 184 57 275 85
91 29 179 56 195 60 17 4 82 24 145 43 98 30 284 87 983 302 60 18 110 35 112
37 2 2 49 184 104 403 169 679 302 1213 306 1232 1 10 11 47 20 83 16 61 19
74 29 118 2 9 9 37 16 62 7 25 13 52 15 60 2 8 36 143 75 300 39 157 73 292
75 300 8 39 56 229 65 260 10 36 128 509 135 545 3 11 28 112 56 225 28 113
52 212 54 220 2 8 45 179 95 380 51 201 94 374 96 385 2 11 38 155 80 320 41
165 78 310 80 322 2 13 77 312 165 665 l160 642 -26 20 c-70 54 -152 126 -175
152 -103 119 -150 189 -203 304 -77 164 -106 305 -102 495 2 77 6 154 9 170 4
17 9 44 12 60 12 62 68 212 102 275 182 336 493 556 857 607 22 3 42 7 44 9 3
2 134 522 166 656 2 9 79 318 170 685 92 367 168 675 170 683 3 13 17 71 41
165 4 17 8 35 10 40 1 6 32 129 69 275 36 146 68 274 71 285 3 11 7 31 10 45
3 13 21 85 40 160 19 74 37 146 40 160 3 14 20 86 39 160 49 191 246 981 251
1005 2 11 41 170 87 353 91 362 90 345 12 317z"/>
<path d="M8340 27854 c0 -3 17 -39 39 -78 21 -39 118 -222 216 -406 98 -184
193 -364 213 -400 19 -36 57 -108 85 -160 27 -52 62 -117 77 -145 15 -27 51
-95 80 -150 29 -55 68 -129 88 -165 69 -129 110 -207 154 -290 93 -175 153
-287 195 -364 24 -43 43 -80 43 -82 0 -2 126 -240 345 -649 73 -137 121 -227
170 -320 83 -157 137 -258 165 -310 15 -27 51 -95 80 -150 57 -108 116 -220
160 -300 15 -27 55 -104 90 -170 34 -66 75 -142 90 -170 15 -27 54 -99 85
-160 73 -138 69 -130 325 -610 118 -220 229 -429 247 -465 19 -36 38 -72 43
-80 8 -14 154 -287 290 -545 29 -55 83 -156 120 -225 37 -69 91 -170 120 -225
29 -55 67 -127 85 -160 18 -33 63 -118 100 -190 37 -71 71 -134 75 -140 4 -5
42 -77 85 -160 43 -82 81 -154 85 -160 4 -5 35 -64 70 -130 85 -163 135 -257
180 -340 20 -38 59 -110 85 -160 26 -49 63 -117 80 -150 33 -61 74 -138 173
-325 30 -58 73 -136 94 -173 21 -38 38 -71 38 -73 0 -2 32 -64 71 -137 39 -72
90 -168 114 -212 23 -44 79 -150 125 -235 45 -85 103 -193 128 -240 24 -47 61
-116 82 -155 21 -38 58 -108 83 -155 38 -74 304 -573 420 -790 22 -41 60 -113
85 -160 24 -47 61 -116 82 -155 21 -38 57 -106 80 -150 23 -44 59 -111 80
-150 36 -67 90 -169 170 -320 21 -38 51 -95 67 -125 16 -30 63 -118 103 -195
40 -77 91 -171 112 -208 21 -38 38 -72 38 -77 0 -23 39 -30 196 -35 93 -2 264
-7 379 -10 116 -3 280 -7 365 -10 169 -5 455 -13 730 -20 96 -3 265 -7 375
-10 212 -6 382 -11 715 -20 113 -3 282 -8 375 -10 94 -3 253 -7 355 -10 102
-3 264 -7 360 -10 96 -3 256 -7 355 -10 387 -10 596 -16 750 -20 162 -5 371
-11 705 -20 172 -5 286 -8 720 -20 343 -9 584 -13 565 -8 -11 3 -78 23 -150
45 -71 22 -157 48 -190 58 -33 10 -82 25 -110 34 -27 8 -198 61 -380 116 -372
113 -432 132 -735 225 -118 37 -287 88 -375 115 -88 26 -182 55 -210 64 -127
40 -249 77 -345 106 -58 17 -125 38 -150 46 -109 34 -257 79 -405 124 -88 26
-279 85 -425 130 -529 163 -626 192 -660 201 -19 6 -46 14 -60 19 -14 5 -72
23 -130 40 -58 17 -116 35 -130 40 -14 5 -70 22 -125 39 -190 57 -860 262
-905 276 -25 8 -110 35 -190 59 -80 24 -251 77 -380 116 -129 40 -262 80 -295
90 -33 10 -179 55 -325 100 -146 45 -305 94 -354 108 -70 21 -90 31 -92 47 -2
11 -33 144 -69 295 -36 151 -86 361 -111 465 -25 105 -49 206 -54 225 -11 37
-89 361 -96 395 -2 11 -6 29 -8 41 -2 11 -9 38 -15 60 -6 21 -25 98 -41 169
-17 72 -42 175 -55 230 -13 55 -35 147 -49 205 -14 58 -41 170 -60 250 -19 80
-55 233 -80 340 -26 107 -51 211 -56 230 -13 47 -28 109 -34 140 -4 24 -88
376 -103 430 -3 14 -7 31 -9 38 -1 7 -19 80 -39 162 -20 82 -38 158 -40 170
-2 12 -7 30 -10 40 -3 10 -8 29 -10 42 -3 13 -12 56 -22 96 -14 60 -20 72 -37
73 -67 3 -160 20 -246 45 -654 195 -992 917 -722 1543 81 187 244 384 405 489
l73 48 -17 69 c-9 39 -33 138 -53 220 -20 83 -38 159 -40 170 -7 31 -43 182
-96 400 -27 110 -51 211 -54 225 -3 14 -12 54 -21 90 -9 36 -18 72 -20 81 -4
19 -23 98 -75 314 -23 94 -44 180 -46 192 -2 12 -26 113 -53 225 -27 112 -61
253 -75 313 -15 61 -29 121 -33 135 -3 14 -7 31 -9 38 -1 7 -19 80 -39 162
-20 82 -38 157 -40 167 -2 14 -76 316 -89 368 -2 6 -6 28 -10 50 -4 22 -12 54
-17 70 -5 17 -37 145 -70 285 -33 140 -62 260 -63 265 -2 6 -6 27 -11 48 -9
47 -16 51 -90 53 -59 2 -369 10 -670 19 -439 12 -574 16 -720 20 -343 9 -606
16 -740 20 -77 3 -232 7 -345 10 -493 13 -563 15 -705 19 -365 12 -645 17
-645 10z"/>
<path d="M41297 27853 c-1 -1 -110 -4 -242 -8 -132 -3 -298 -8 -370 -10 -71
-2 -233 -6 -360 -10 -126 -3 -293 -8 -370 -10 -157 -5 -513 -14 -740 -20 -167
-4 -498 -14 -705 -20 -74 -2 -243 -7 -375 -10 -363 -10 -374 -10 -379 -15 -2
-3 -6 -18 -9 -35 -3 -16 -23 -104 -45 -195 -40 -163 -73 -301 -134 -555 -17
-71 -41 -170 -53 -218 l-22 -88 81 -54 c174 -116 302 -256 393 -431 42 -81 96
-228 108 -294 26 -152 26 -340 -1 -455 -10 -44 -19 -82 -19 -85 -7 -31 -28
-96 -35 -109 -5 -9 -23 -47 -40 -84 -89 -194 -266 -381 -465 -492 -64 -36
-205 -97 -205 -89 0 3 -8 0 -18 -5 -33 -18 -204 -50 -269 -50 -31 -1 -43 -6
-47 -18 -8 -27 -64 -266 -69 -294 -3 -13 -10 -44 -17 -69 -7 -25 -14 -52 -15
-60 -2 -8 -9 -37 -15 -65 -6 -27 -13 -57 -15 -65 -2 -8 -17 -71 -34 -140 -18
-69 -33 -134 -35 -145 -3 -11 -20 -85 -40 -165 -45 -187 -96 -401 -101 -420
-6 -29 -56 -235 -61 -255 -3 -11 -7 -31 -10 -43 -3 -13 -20 -87 -39 -165 -19
-78 -74 -311 -124 -517 -49 -206 -120 -499 -156 -650 -36 -151 -68 -282 -70
-290 -3 -15 -83 -353 -90 -380 -2 -8 -15 -64 -30 -125 -22 -95 -34 -146 -40
-165 -1 -3 -5 -21 -9 -40 -5 -19 -28 -116 -51 -215 -24 -99 -53 -220 -65 -270
-12 -49 -23 -97 -25 -105 -8 -36 -50 -210 -97 -400 -27 -113 -51 -212 -53
-220 -2 -8 -12 -54 -24 -102 -11 -48 -23 -98 -25 -110 -3 -13 -25 -106 -50
-208 -25 -102 -58 -241 -75 -310 -90 -382 -204 -860 -212 -891 -8 -31 -15 -38
-47 -47 -64 -18 -132 -39 -287 -87 -82 -25 -202 -62 -265 -81 -63 -19 -137
-42 -165 -50 -85 -27 -337 -105 -385 -119 -43 -13 -221 -67 -395 -121 -44 -14
-87 -27 -95 -29 -12 -3 -922 -282 -1410 -432 -63 -19 -143 -44 -177 -54 -35
-10 -91 -28 -125 -38 -35 -10 -117 -36 -183 -56 -66 -20 -201 -62 -300 -92
-99 -30 -223 -68 -275 -84 -52 -17 -102 -32 -110 -34 -20 -5 -769 -234 -930
-285 -69 -21 -170 -52 -225 -69 -55 -16 -248 -75 -430 -131 -336 -103 -612
-188 -720 -220 -134 -40 -562 -172 -585 -180 -24 -8 119 -7 525 5 99 3 266 7
370 10 475 13 581 16 750 20 99 3 250 7 335 10 85 2 250 7 365 10 116 3 287 7
380 10 94 3 260 7 370 10 110 3 263 7 340 10 77 2 239 6 360 10 121 3 292 8
380 10 88 3 248 7 355 10 107 3 269 7 360 10 160 5 337 9 760 20 113 3 268 8
345 10 144 5 386 11 718 20 104 3 193 7 198 11 5 3 16 20 24 37 8 18 32 64 53
102 21 39 64 120 96 180 117 221 149 281 176 330 35 64 92 171 165 310 32 61
61 115 65 120 4 6 42 78 85 160 43 83 90 173 105 200 15 28 48 88 72 135 25
47 64 120 87 163 22 42 58 110 80 150 21 39 54 101 73 137 19 36 58 108 85
160 129 244 147 278 173 325 15 28 51 95 80 150 29 55 65 123 80 150 15 28 52
97 82 155 31 58 71 134 90 170 20 36 59 110 88 165 29 55 65 123 80 150 15 28
51 95 80 150 68 128 125 237 160 300 15 28 50 93 77 145 53 101 137 259 186
350 16 30 49 93 74 140 25 47 60 112 78 145 18 33 58 110 90 170 32 61 75 142
95 180 21 39 57 106 80 150 24 44 55 103 70 130 15 28 53 100 85 160 32 61 70
133 85 160 15 28 54 100 85 160 32 61 102 191 154 290 53 99 102 191 109 205
7 14 25 48 40 75 15 28 60 113 101 190 41 77 86 163 101 190 15 28 49 91 75
140 26 50 60 113 75 140 15 28 50 93 78 145 27 52 125 237 217 410 92 173 190
358 218 410 27 52 64 122 82 155 18 33 51 94 73 135 40 76 89 168 167 315 23
44 66 125 95 180 29 55 65 123 80 150 15 28 48 88 72 135 116 219 146 273 208
390 37 69 93 175 125 235 32 61 74 139 93 175 19 36 53 99 75 140 21 41 57
108 78 148 74 138 117 218 174 327 55 104 76 143 157 295 19 36 55 103 80 150
25 47 83 157 130 245 47 88 109 205 138 260 29 55 65 123 80 150 50 91 133
248 246 463 25 48 64 119 85 158 21 39 39 74 39 78 0 6 -358 5 -363 -1z"/>
<path d="M15960 27703 c-121 -21 -239 -94 -311 -193 -29 -40 -70 -132 -75
-170 -26 -168 12 -301 119 -416 140 -151 354 -190 542 -99 166 81 261 237 258
425 -3 199 -123 366 -311 432 -53 18 -172 30 -222 21z"/>
<path d="M36895 26109 c-220 -29 -392 -218 -400 -440 -11 -276 209 -497 483
-484 170 7 312 96 391 244 178 334 -97 730 -474 680z"/>
<path d="M13727 23294 c-1 -1 -22 -4 -47 -7 -59 -7 -123 -32 -187 -74 -196
-128 -262 -392 -151 -604 135 -258 477 -327 706 -142 43 35 106 115 129 163
27 56 42 145 38 224 -6 125 -50 221 -139 307 -60 56 -106 84 -181 108 -50 17
-159 33 -168 25z"/>
<path d="M33813 20948 c-105 -15 -223 -77 -276 -145 -10 -13 -24 -29 -31 -36
-22 -22 -53 -83 -71 -137 -53 -161 -9 -348 112 -469 225 -224 594 -170 742
110 178 332 -103 732 -476 677z"/>
</g>
</svg>
